<svg width="22" height="21" viewBox="0 0 22 21" fill="none" xmlns="http://www.w3.org/2000/svg">
<rect x="0.90625" width="21" height="21" rx="10.5" fill="#785600"/>
<g clip-path="url(#clip0_5445_14489)">
<g style="mix-blend-mode:luminosity" clip-path="url(#clip1_5445_14489)">
<path d="M8.5605 7.99988C10.1392 8.2782 11.0801 8.86039 11.4047 9.19462C11.7292 8.86039 12.6702 8.2782 14.2489 7.99988C15.0487 7.85888 15.4485 7.78838 15.7891 8.05859C16.1297 8.32881 16.1297 8.7676 16.1297 9.64518V12.799C16.1297 13.6015 16.1297 14.0027 15.9111 14.2532C15.6925 14.5037 15.2113 14.5885 14.2489 14.7582C13.3909 14.9094 12.7213 15.1504 12.2367 15.3926C11.7598 15.6309 11.5214 15.75 11.4047 15.75C11.288 15.75 11.0495 15.6309 10.5727 15.3926C10.088 15.1504 9.41845 14.9094 8.5605 14.7582C7.59806 14.5885 7.11684 14.5037 6.89826 14.2532C6.67969 14.0027 6.67969 13.6015 6.67969 12.799V9.64518C6.67969 8.7676 6.67969 8.32881 7.02026 8.05859C7.36083 7.78838 7.76072 7.85888 8.5605 7.99988Z" fill="#FFE090" stroke="#FFBB0A" stroke-width="0.7875" stroke-linecap="round" stroke-linejoin="round"/>
<path d="M11.4062 8.92578L11.4063 15.7508" stroke="#FFBB0A" stroke-width="0.7875" stroke-linejoin="round"/>
<path d="M9.56641 5.80575C10.0974 5.45369 10.7261 5.25 11.4 5.25C12.0772 5.25 12.7088 5.45568 13.2414 5.81092M12.2556 7.0875C12.0035 6.93538 11.7114 6.84841 11.4 6.84841C11.092 6.84841 10.8028 6.93354 10.5526 7.08266" stroke="#FFBB0A" stroke-width="0.7875" stroke-linecap="round"/>
</g>
<g clip-path="url(#clip2_5445_14489)">
<path d="M9.08394 7.99988C10.6627 8.2782 11.6036 8.86039 11.9281 9.19462C12.2527 8.86039 13.1936 8.2782 14.7723 7.99988C15.5721 7.85888 15.972 7.78838 16.3126 8.05859C16.6531 8.32881 16.6531 8.7676 16.6531 9.64518V12.799C16.6531 13.6015 16.6531 14.0027 16.4345 14.2532C16.216 14.5037 15.7348 14.5885 14.7723 14.7582C13.9144 14.9094 13.2448 15.1504 12.7601 15.3926C12.2833 15.6309 12.0448 15.75 11.9281 15.75C11.8114 15.75 11.573 15.6309 11.0961 15.3926C10.6115 15.1504 9.94189 14.9094 9.08394 14.7582C8.1215 14.5885 7.64028 14.5037 7.4217 14.2532C7.20312 14.0027 7.20312 13.6015 7.20312 12.799V9.64518C7.20312 8.7676 7.20312 8.32881 7.5437 8.05859C7.88427 7.78838 8.28416 7.85888 9.08394 7.99988Z" fill="#FFE090" stroke="#FFBB0A" stroke-width="0.7875" stroke-linecap="round" stroke-linejoin="round"/>
<path d="M11.9297 8.92578L11.9297 15.7508" stroke="#FFBB0A" stroke-width="0.7875" stroke-linejoin="round"/>
<path d="M10.0898 5.80575C10.6208 5.45369 11.2495 5.25 11.9235 5.25C12.6007 5.25 13.2322 5.45568 13.7648 5.81092M12.779 7.0875C12.5269 6.93538 12.2349 6.84841 11.9235 6.84841C11.6154 6.84841 11.3262 6.93354 11.076 7.08266" stroke="#FFBB0A" stroke-width="0.7875" stroke-linecap="round"/>
</g>
</g>
<defs>
<clipPath id="clip0_5445_14489">
<rect width="12.6" height="12.6" fill="white" transform="translate(5.10547 4.19922)"/>
</clipPath>
<clipPath id="clip1_5445_14489">
<rect width="12.6" height="12.6" fill="white" transform="translate(5.10547 4.19922)"/>
</clipPath>
<clipPath id="clip2_5445_14489">
<rect width="12.6" height="12.6" fill="white" transform="translate(5.62891 4.19922)"/>
</clipPath>
</defs>
</svg>
