<svg width="32" height="32" viewBox="0 0 32 32" fill="none" xmlns="http://www.w3.org/2000/svg">
<rect width="32" height="32" rx="16" fill="#FFCA40"/>
<path d="M16.6492 17.9588C16.6492 17.7102 16.4477 17.5088 16.1992 17.5088C15.9507 17.5088 15.7492 17.7102 15.7492 17.9588H16.6492ZM13.9513 21.5202L13.81 21.9475H13.81L13.9513 21.5202ZM12.5876 21.1737L12.5057 21.6162L12.5876 21.1737ZM10.6317 12.2447L10.3437 11.8989L10.3437 11.8989L10.6317 12.2447ZM18.4471 21.5202L18.3058 21.093L18.4471 21.5202ZM19.8109 21.1737L19.8928 21.6162L19.8109 21.1737ZM21.7667 12.2447L22.0547 11.8989V11.8989L21.7667 12.2447ZM15.7492 21.8658C15.7492 22.1143 15.9507 22.3158 16.1992 22.3158C16.4477 22.3158 16.6492 22.1143 16.6492 21.8658H15.7492ZM20.6492 11.573C20.4022 11.6006 20.2244 11.8232 20.252 12.0702C20.2796 12.3172 20.5022 12.495 20.7492 12.4674L20.6492 11.573ZM11.6492 12.4674C11.8962 12.495 12.1188 12.3172 12.1464 12.0702C12.174 11.8232 11.9962 11.6006 11.7492 11.573L11.6492 12.4674ZM13.9513 21.5202L14.0927 21.093C13.6697 20.9531 13.1954 20.8286 12.6694 20.7312L12.5876 21.1737L12.5057 21.6162C12.9918 21.7062 13.4264 21.8205 13.81 21.9475L13.9513 21.5202ZM10.1992 14.3592H9.74922V18.5627H10.1992H10.6492V14.3592H10.1992ZM12.5876 21.1737L12.6694 20.7312C12.0489 20.6164 11.6167 20.5359 11.3028 20.4453C10.9851 20.3535 10.8725 20.2728 10.8228 20.213L10.4768 20.5007L10.1307 20.7884C10.3586 21.0624 10.6904 21.2052 11.0531 21.3099C11.4197 21.4158 11.9041 21.5049 12.5057 21.6162L12.5876 21.1737ZM10.1992 18.5627H9.74922C9.74922 19.0867 9.74855 19.5176 9.78672 19.8577C9.82557 20.2038 9.91037 20.5233 10.1307 20.7884L10.4768 20.5007L10.8228 20.213C10.7656 20.1442 10.7116 20.0294 10.6811 19.7573C10.6499 19.4792 10.6492 19.108 10.6492 18.5627H10.1992ZM10.1992 14.3592H10.6492C10.6492 13.7593 10.6506 13.3632 10.6976 13.0696C10.7411 12.798 10.8145 12.678 10.9197 12.5905L10.6317 12.2447L10.3437 11.8989C10.0164 12.1715 9.87355 12.524 9.80894 12.9272C9.74787 13.3084 9.74922 13.7895 9.74922 14.3592H10.1992ZM18.4471 21.5202L18.5884 21.9475C18.9721 21.8205 19.4066 21.7062 19.8928 21.6162L19.8109 21.1737L19.729 20.7312C19.203 20.8286 18.7287 20.9531 18.3058 21.093L18.4471 21.5202ZM22.1992 14.3592H21.7492V18.5627H22.1992H22.6492V14.3592H22.1992ZM19.8109 21.1737L19.8928 21.6162C20.4943 21.5049 20.9788 21.4158 21.3454 21.3099C21.7081 21.2052 22.0399 21.0624 22.2677 20.7884L21.9217 20.5007L21.5756 20.213C21.5259 20.2728 21.4134 20.3535 21.0956 20.4453C20.7818 20.5359 20.3496 20.6164 19.729 20.7312L19.8109 21.1737ZM22.1992 18.5627H21.7492C21.7492 19.108 21.7485 19.4792 21.7173 19.7573C21.6868 20.0294 21.6328 20.1442 21.5756 20.213L21.9217 20.5007L22.2677 20.7884C22.4881 20.5233 22.5729 20.2038 22.6117 19.8577C22.6499 19.5176 22.6492 19.0867 22.6492 18.5627H22.1992ZM22.1992 14.3592H22.6492C22.6492 13.7895 22.6506 13.3084 22.5895 12.9272C22.5249 12.524 22.3821 12.1715 22.0547 11.8989L21.7667 12.2447L21.4788 12.5905C21.5839 12.678 21.6573 12.798 21.7008 13.0696C21.7479 13.3632 21.7492 13.7593 21.7492 14.3592H22.1992ZM13.9513 21.5202L13.81 21.9475C14.4929 22.1734 15.0117 22.3451 15.3836 22.46C15.5694 22.5174 15.725 22.5627 15.8495 22.594C15.9607 22.6219 16.0889 22.65 16.1992 22.65V22.2V21.75C16.2129 21.75 16.1831 21.7498 16.0687 21.7211C15.9677 21.6957 15.8302 21.656 15.6494 21.6001C15.2881 21.4885 14.7796 21.3203 14.0927 21.093L13.9513 21.5202ZM18.4471 21.5202L18.3058 21.093C17.6188 21.3203 17.1104 21.4885 16.7491 21.6001C16.5682 21.656 16.4308 21.6957 16.3297 21.7211C16.2154 21.7498 16.1855 21.75 16.1992 21.75V22.2V22.65C16.3095 22.65 16.4377 22.6219 16.5489 22.594C16.6735 22.5627 16.829 22.5174 17.0148 22.46C17.3867 22.3451 17.9056 22.1734 18.5884 21.9475L18.4471 21.5202ZM16.1992 17.9588H15.7492V21.8658H16.1992H16.6492V17.9588H16.1992ZM20.6992 12.0202L20.7492 12.4674C21.1702 12.4204 21.3346 12.4705 21.4788 12.5905L21.7667 12.2447L22.0547 11.8989C21.6326 11.5474 21.1663 11.5152 20.6492 11.573L20.6992 12.0202ZM11.6992 12.0202L11.7492 11.573C11.2321 11.5152 10.7658 11.5474 10.3437 11.8989L10.6317 12.2447L10.9197 12.5905C11.0638 12.4705 11.2283 12.4204 11.6492 12.4674L11.6992 12.0202Z" fill="white"/>
<path d="M16.1992 16.1992C17.8561 16.1992 19.1992 14.8561 19.1992 13.1992C19.1992 11.5424 17.8561 10.1992 16.1992 10.1992M16.1992 16.1992C14.5424 16.1992 13.1992 14.8561 13.1992 13.1992C13.1992 11.5424 14.5424 10.1992 16.1992 10.1992M16.1992 16.1992C16.862 16.1992 17.3992 14.8561 17.3992 13.1992C17.3992 11.5424 16.862 10.1992 16.1992 10.1992M16.1992 16.1992C15.5365 16.1992 14.9992 14.8561 14.9992 13.1992C14.9992 11.5424 15.5365 10.1992 16.1992 10.1992" stroke="white" stroke-width="0.9" stroke-linecap="round" stroke-linejoin="round"/>
</svg>
