<svg width="24" height="25" viewBox="0 0 24 25" fill="none" xmlns="http://www.w3.org/2000/svg">
<rect y="0.5" width="24" height="24" rx="12" fill="#FFCA40" fill-opacity="0.24"/>
<path d="M8.53349 15.1323C7.59031 15.6939 5.11735 16.8406 6.62355 18.2756C7.35931 18.9765 8.17876 19.4779 9.20902 19.4779H15.0879C16.1181 19.4779 16.9376 18.9765 17.6733 18.2756C19.1795 16.8406 16.7066 15.6939 15.7634 15.1323C13.5516 13.8153 10.7452 13.8153 8.53349 15.1323Z" stroke="#FFBB0A" stroke-linecap="round" stroke-linejoin="round"/>
<path d="M15.1484 9.14453C15.1484 10.8014 13.8053 12.1445 12.1484 12.1445C10.4916 12.1445 9.14844 10.8014 9.14844 9.14453C9.14844 7.48768 10.4916 6.14453 12.1484 6.14453C13.8053 6.14453 15.1484 7.48768 15.1484 9.14453Z" stroke="#FFBB0A"/>
</svg>
