<svg xmlns="http://www.w3.org/2000/svg" viewBox="0 0 256 256" focusable="false" color="var(--token-67f46c62-dabf-4520-93ef-2989d3567173, rgb(255, 255, 255))" style="user-select: none; width: 100%; height: 100%; display: inline-block; fill: var(--token-67f46c62-dabf-4520-93ef-2989d3567173, rgb(255, 255, 255)); color: var(--token-67f46c62-dabf-4520-93ef-2989d3567173, rgb(255, 255, 255)); flex-shrink: 0;"><g color="var(--token-67f46c62-dabf-4520-93ef-2989d3567173, rgb(255, 255, 255))" weight="regular"><path d="M236.88,26.19a9,9,0,0,0-9.16-1.57L25.06,103.93a14.22,14.22,0,0,0,2.43,27.21L80,141.45V200a15.92,15.92,0,0,0,10,14.83,15.91,15.91,0,0,0,17.51-3.73l25.32-26.26L173,220a15.88,15.88,0,0,0,10.51,4,16.3,16.3,0,0,0,5-.79,15.85,15.85,0,0,0,10.67-11.63L239.77,35A9,9,0,0,0,236.88,26.19Zm-61.14,36L86.15,126.35l-49.6-9.73ZM96,200V152.52l24.79,21.74Zm87.53,8L100.85,135.5l119-85.29Z"></path></g></svg>