<svg xmlns="http://www.w3.org/2000/svg" viewBox="0 0 256 256" focusable="false" color="rgb(38, 38, 38)" style="user-select: none; width: 100%; height: 100%; display: inline-block; fill: rgb(38, 38, 38) color: rgb(38, 38, 38) flex-shrink: 0;"><g color="rgb(38, 38, 38)" weight="regular"><path d="M208,96V32a8,8,0,0,0-8-8H56a8,8,0,0,0-5.31,14L107,88H56a8,8,0,0,0-8,8v64a8,8,0,0,0,2.34,5.66l72,72A8,8,0,0,0,136,232V168h64a8,8,0,0,0,5.31-14L149,104h51A8,8,0,0,0,208,96Zm-29,56H128a8,8,0,0,0-8,8v52.69l-56-56V104h61Zm13-64H131L77,40H192Z"></path></g></svg>